<?xml version="1.0" standalone="no"?>
<!DOCTYPE svg PUBLIC "-//W3C//DTD SVG 20010904//EN"
 "http://www.w3.org/TR/2001/REC-SVG-20010904/DTD/svg10.dtd">
<svg version="1.0" xmlns="http://www.w3.org/2000/svg"
 width="1200.000000pt" height="435.000000pt" viewBox="0 0 1200.000000 435.000000"
 preserveAspectRatio="xMidYMid meet">
<metadata>
Created by potrace 1.16, written by Peter Selinger 2001-2019
</metadata>
<g transform="translate(0.000000,435.000000) scale(0.100000,-0.100000)"
fill="#000000" stroke="none">
<path d="M8770 3610 l0 -740 265 0 265 0 0 740 0 740 -265 0 -265 0 0 -740z"/>
<path d="M10567 3382 l-687 -687 183 -183 c100 -100 187 -182 192 -182 6 0
317 310 692 688 l681 689 -181 181 c-100 100 -184 182 -187 182 -3 0 -314
-309 -693 -688z"/>
<path d="M1265 3000 c-169 -20 -367 -84 -509 -165 -319 -181 -575 -490 -685
-825 -50 -154 -62 -229 -68 -445 -5 -173 -2 -216 15 -320 53 -308 185 -558
412 -785 224 -224 467 -353 765 -406 150 -27 415 -25 563 5 423 83 774 345
988 738 45 82 124 278 124 307 0 14 -34 16 -298 16 l-299 0 -48 -77 c-139
-219 -316 -355 -540 -414 -116 -31 -316 -31 -439 -1 -322 80 -603 371 -670
694 -21 99 -21 277 0 376 57 276 242 510 510 645 306 154 709 91 965 -150 70
-67 145 -161 194 -245 l27 -48 300 0 300 0 -7 38 c-9 47 -63 189 -105 272 -81
163 -213 325 -375 460 -204 170 -386 262 -613 310 -113 24 -380 34 -507 20z"/>
<path d="M3150 1515 l0 -1495 290 0 290 0 0 1495 0 1495 -290 0 -290 0 0
-1495z"/>
<path d="M4835 2419 c-172 -22 -355 -92 -455 -175 -157 -130 -232 -295 -264
-576 l-6 -48 289 0 289 0 12 52 c15 70 49 126 111 182 73 66 127 79 293 74
139 -5 213 -24 271 -70 61 -48 85 -176 46 -248 -36 -69 -78 -84 -386 -140
-414 -75 -547 -113 -669 -190 -98 -63 -191 -170 -235 -273 -55 -127 -70 -390
-31 -541 49 -193 176 -334 357 -397 278 -97 676 -48 938 116 l85 54 0 -115 0
-114 290 0 291 0 -3 923 c-4 908 -4 923 -25 998 -41 147 -113 255 -212 318
-111 72 -327 141 -519 166 -122 16 -354 18 -467 4z m582 -1411 c-8 -247 -35
-336 -126 -421 -119 -112 -337 -169 -482 -128 -181 51 -239 315 -102 462 60
64 122 92 273 123 202 43 342 82 390 110 25 14 47 26 49 26 2 0 1 -78 -2 -172z"/>
<path d="M8737 2395 c-326 -62 -624 -273 -804 -571 -117 -193 -172 -431 -160
-688 14 -283 97 -498 277 -712 171 -202 378 -334 624 -395 115 -29 359 -37
482 -15 359 62 658 269 843 582 186 316 200 804 31 1150 -154 318 -451 557
-790 636 -115 27 -392 34 -503 13z m408 -580 c60 -15 171 -81 232 -138 110
-103 171 -219 198 -376 15 -84 15 -95 -4 -186 -24 -116 -80 -235 -149 -316
-128 -150 -258 -210 -457 -210 -198 0 -352 73 -466 220 -97 126 -149 265 -149
402 0 186 53 311 190 449 108 109 218 159 370 169 84 6 177 0 235 -14z"/>
<path d="M7434 2366 c-175 -51 -321 -143 -425 -268 l-49 -59 0 135 0 136 -275
0 -275 0 0 -1145 0 -1145 284 0 284 0 5 643 c5 734 4 726 84 860 58 96 136
170 231 220 117 62 159 71 310 69 l132 -2 -2 292 -3 293 -95 2 c-81 1 -112 -3
-206 -31z"/>
<path d="M10490 1505 l0 -265 755 0 755 0 0 265 0 265 -755 0 -755 0 0 -265z"/>
</g>
</svg>
