<?xml version="1.0" standalone="no"?>
<!DOCTYPE svg PUBLIC "-//W3C//DTD SVG 20010904//EN"
 "http://www.w3.org/TR/2001/REC-SVG-20010904/DTD/svg10.dtd">
<svg version="1.0" xmlns="http://www.w3.org/2000/svg"
 width="600.000000pt" height="600.000000pt" viewBox="0 0 600.000000 600.000000"
 preserveAspectRatio="xMidYMid meet">
<metadata>
Created by potrace 1.16, written by Peter Selinger 2001-2019
</metadata>
<g transform="translate(0.000000,600.000000) scale(0.100000,-0.100000)"
fill="#000000" stroke="none">
<path d="M0 5156 l0 -843 62 -6 c318 -31 649 -267 779 -553 37 -82 38 -97 2
-90 -16 3 -93 12 -173 21 l-145 15 -29 38 c-55 70 -138 141 -207 177 -72 37
-199 75 -256 75 l-33 0 0 -551 0 -552 82 7 c155 13 289 77 389 185 l58 63 145
-11 c79 -6 156 -11 170 -11 20 0 26 -5 26 -21 0 -41 -84 -181 -154 -256 -165
-177 -366 -269 -632 -289 l-84 -7 0 -193 0 -193 1350 6 1349 6 43 -28 c53 -34
433 -301 531 -373 40 -28 105 -76 146 -105 333 -237 425 -309 408 -326 -6 -6
-7 -14 -3 -18 4 -4 11 -1 16 7 8 12 10 10 10 -7 0 -28 -17 -29 -50 -3 -14 11
-29 20 -33 20 -5 0 -160 101 -345 223 -185 123 -427 283 -537 355 l-200 132
-285 -5 c-349 -7 -1314 -22 -1937 -31 l-463 -7 0 -1004 0 -1003 3000 0 3000 0
0 478 0 478 -77 -13 c-85 -15 -139 -14 -136 2 1 6 24 14 50 18 26 4 74 13 106
19 l57 11 0 1558 c0 1425 -1 1559 -16 1559 -21 0 -682 142 -1304 280 l-185 41
-399 399 c-220 220 -397 402 -394 405 3 3 97 -84 209 -193 280 -272 488 -471
529 -505 12 -10 34 -21 49 -23 14 -2 42 -6 61 -9 89 -14 1045 -227 1320 -294
41 -11 87 -22 103 -25 l27 -6 0 910 0 910 -3000 0 -3000 0 0 -844z m1185
-1056 c71 -11 134 -25 140 -31 7 -7 9 -176 7 -517 -4 -583 -15 -959 -30 -974
-6 -6 -60 -7 -153 -3 l-142 8 6 341 c4 187 9 487 12 666 6 360 14 530 23 530
4 0 65 -9 137 -20z m3049 -347 c-51 -79 -154 -203 -168 -203 -10 0 -1 83 11
105 6 11 10 23 10 26 -3 12 98 89 116 89 10 0 15 -4 12 -10 -3 -5 -2 -10 3
-10 6 0 12 7 16 15 3 8 8 15 12 15 3 0 -2 -12 -12 -27z m-2155 -117 c132 -36
224 -103 264 -193 l26 -58 7 -380 c5 -323 9 -384 22 -405 31 -49 29 -50 -98
-50 -111 0 -120 1 -134 22 -9 12 -16 35 -16 50 0 41 -14 41 -58 -1 -135 -128
-386 -130 -509 -4 -116 120 -110 403 11 506 65 55 169 87 289 88 40 0 103 3
141 8 58 6 73 12 93 36 20 23 24 36 19 64 -7 47 -35 82 -77 97 -42 15 -146 17
-186 4 -32 -11 -63 -56 -63 -89 0 -12 -6 -23 -12 -26 -7 -2 -65 2 -128 8
l-115 12 -3 33 c-2 18 4 56 12 85 31 106 97 174 198 202 64 18 235 13 317 -9z
m659 -123 l32 -5 0 -79 c0 -44 4 -79 8 -79 5 0 15 15 24 33 22 46 65 95 99
113 38 19 128 21 140 3 5 -8 8 -63 7 -124 l-3 -110 -70 -8 c-89 -10 -135 -32
-157 -77 -15 -31 -18 -73 -18 -337 -1 -175 -5 -303 -10 -305 -5 -2 -54 -1
-107 2 l-98 5 -6 60 c-4 33 -7 255 -8 494 l-1 433 68 -6 c37 -4 82 -10 100
-13z m842 -70 c25 -13 60 -35 77 -51 31 -26 32 -29 21 -60 -9 -23 -9 -35 -2
-40 16 -11 33 -101 20 -105 -8 -3 -8 -8 0 -18 6 -8 17 -34 24 -58 11 -35 15
-40 21 -25 6 14 8 9 7 -16 -1 -44 10 -139 18 -151 3 -5 0 -9 -6 -9 -8 0 -10
-19 -7 -60 3 -32 1 -60 -4 -62 -4 -2 -10 -19 -13 -39 -6 -50 -52 -134 -102
-186 -33 -33 -50 -43 -74 -43 -28 0 -31 -2 -20 -15 10 -12 9 -15 -6 -17 -136
-10 -288 89 -368 242 -85 161 -92 372 -18 530 42 90 132 175 212 201 48 16
172 5 220 -18z m1274 -1 c41 -38 51 -72 51 -194 0 -109 -1 -118 -24 -142 -30
-31 -59 -33 -95 -5 -49 39 -59 73 -60 202 l-1 119 29 25 c32 27 66 25 100 -5z
m146 -123 c0 -8 5 -8 15 1 21 17 62 5 81 -25 25 -38 31 -177 10 -210 -17 -25
-59 -34 -71 -15 -16 27 -24 5 -18 -51 6 -56 5 -61 -13 -57 -16 3 -20 15 -25
93 -4 50 -7 132 -8 183 -1 76 2 92 14 92 8 0 15 -5 15 -11z m268 -31 c25 -28
42 -70 42 -108 l0 -29 -55 6 c-50 5 -55 4 -55 -14 0 -31 32 -54 71 -51 43 4
53 -26 15 -43 -34 -16 -77 2 -101 43 -26 45 -27 168 -1 197 25 27 57 27 84 -1z
m326 -37 c23 -25 34 -77 37 -165 l2 -70 -43 -2 c-57 -3 -90 28 -90 84 0 48 20
67 66 64 38 -3 38 -3 24 32 -8 21 -16 26 -44 26 -38 0 -49 10 -40 34 9 23 67
21 88 -3z m349 -39 c27 -30 50 -120 42 -168 -7 -50 -25 -69 -60 -60 -31 8 -51
47 -59 113 -11 102 32 165 77 115z m-1642 -32 c128 -13 159 -19 159 -31 0 -6
-4 -7 -10 -4 -15 9 -12 0 9 -37 10 -18 22 -64 26 -101 l7 -68 -74 6 c-141 12
-273 26 -305 32 -37 6 -45 33 -10 33 18 0 22 6 25 36 3 46 18 74 40 74 15 0
15 2 2 10 -12 8 -12 10 5 10 17 0 17 2 5 10 -11 7 -1 10 35 11 l50 1 -44 9
c-45 9 -66 19 -39 19 9 0 62 -5 119 -10z m772 -490 c26 -21 47 -73 47 -118 0
-22 -3 -23 -61 -21 -42 2 -63 -2 -69 -11 -12 -20 -24 52 -16 96 7 37 37 74 60
74 7 0 25 -9 39 -20z m504 -25 c22 -15 50 -106 38 -125 -3 -5 -28 -10 -56 -10
-44 0 -49 -2 -50 -22 -1 -50 -18 16 -18 75 -1 44 3 61 19 77 24 24 38 25 67 5z"/>
<path d="M2036 3024 c-22 -8 -77 -18 -122 -24 -105 -11 -140 -29 -165 -83 -36
-80 -16 -146 54 -178 48 -21 85 -24 142 -8 92 26 140 99 148 232 6 85 6 85
-57 61z"/>
<path d="M3427 3245 c-138 -49 -193 -245 -114 -401 47 -93 120 -144 205 -144
64 0 112 20 150 65 56 62 72 106 72 189 0 97 -26 168 -82 225 -74 75 -148 96
-231 66z"/>
<path d="M4774 3389 c-15 -17 -19 -36 -19 -98 0 -42 3 -88 8 -103 9 -35 49
-62 77 -53 33 10 42 50 35 142 -10 118 -53 165 -101 112z"/>
</g>
</svg>
